<svg xmlns="http://www.w3.org/2000/svg" viewBox="0 0 209.13 209.13"><defs><style>.cls-1{fill:#fff;}</style></defs><g id="Layer_2" data-name="Layer 2"><g id="Layer_1-2" data-name="Layer 1"><path class="cls-1" d="M173.33,97.8,193,78.18l-2-7.51L197.6,64l9.09,2.43,2.44,9.1-6.66,6.65-7.51-2L175.34,99.8l2.67,2.67L176,110l19,19,7.51-2,6.66,6.66-2.44,9.09-9.09,2.44-6.66-6.66,2-7.51L174,112l-7.52,2-6.65-6.65,2.43-9.1,9.1-2.43Zm2.22,43.75,2-7.52-6.66-6.65-9.09,2.43-2.44,9.1,6.66,6.65,7.51-2,19,19-2,7.51,6.66,6.66,9.09-2.44,2.44-9.09L202,158.49l-7.51,2Zm32.68,55.15-6.65-6.65-7.52,2-18.95-19,2-7.51-6.66-6.66-9.09,2.44-2.44,9.09,6.66,6.66,7.51-2,19,18.95-2,7.52,6.65,6.65,9.1-2.43ZM170,190.49l-7.51,2-19-19,2-7.51-6.65-6.66-9.1,2.44-2.43,9.09,6.65,6.66,7.52-2,18.95,19-2,7.51,6.66,6.66,9.09-2.44,2.44-9.09Zm-31.56.45L131,193,112,174l2-7.52-6.65-6.65-9.1,2.43-2.43,9.1,2,2L78.18,193l-7.51-2L64,197.6l2.43,9.09,9.1,2.44,6.65-6.66-2-7.51L99.8,175.34l2.67,2.67,7.52-2,19,19-2,7.51,6.66,6.66,9.09-2.44,2.44-9.09ZM70.22,159.38,63.56,166l2,7.51-19,19-7.51-2-6.66,6.66,2.44,9.09L44,208.68,50.64,202l-2-7.51,19-19,7.51,2,6.66-6.66-2.44-9.09Zm-31.56-.45L32,165.59l2,7.51-19,19-7.51-2L.89,196.7l2.44,9.1,9.09,2.43,6.66-6.65-2-7.52,19-18.95,7.51,2,6.66-6.66-2.44-9.09Zm-.45-31.55L31.56,134l2,7.52-19,18.95-7.52-2L.45,165.15l2.43,9.09,9.1,2.44L18.63,170l-2-7.51,19-19,7.51,2,6.65-6.65-2.43-9.1Zm-.44-31.56-2,2L16.17,78.18l2-7.52L11.53,64,2.44,66.44,0,75.54l6.66,6.65,7.51-2L33.79,99.8l-2.68,2.67,2,7.52-19,19-7.51-2L0,133.59l2.44,9.09,9.09,2.44,6.66-6.66-2-7.51,19-19,7.51,2,6.66-6.65-2.44-9.1Zm-4.2-28.24-2,7.51,6.66,6.66,9.09-2.44,2.43-9.09-6.65-6.66-7.51,2-19-19,2-7.51L12,32.45l-9.1,2.44L.45,44,7.1,50.64l7.52-2ZM34,36l-2,7.51,6.66,6.66,9.09-2.44,2.44-9.09L43.53,32,36,34l-19-19,2-7.51L12.42.89,3.33,3.33.89,12.42l6.66,6.66,7.51-2Zm5.09-17.39,7.51-2,19,19-2,7.51,6.66,6.65,9.09-2.43,2.44-9.1-6.66-6.65-7.51,2-19-19,2-7.52L44,.45,34.89,2.88,32.45,12Zm72.22,17.16L131,16.17l7.51,2,6.66-6.66-2.44-9.09L133.59,0l-6.66,6.66,2,7.51L109.33,33.79l-2.68-2.68-7.51,2-19-19,2-7.51L75.54,0l-9.1,2.44L64,11.53l6.66,6.66,7.51-2,18.95,19-2,7.51,6.66,6.66,9.09-2.44,2.44-9.09ZM165.15.45,158.49,7.1l2,7.52-18.95,19-7.52-2-6.65,6.65,2.43,9.1,9.1,2.43,6.65-6.65-2-7.51,19-19,7.51,2L176.68,12l-2.44-9.1ZM196.7.89l-6.65,6.66,2,7.51-19,19-7.51-2-6.66,6.66,2.44,9.09,9.09,2.44,6.66-6.66-2-7.51,18.95-19,7.52,2,6.65-6.66L205.8,3.33Zm.45,31.56-6.66,6.66,2,7.51-19,19-7.51-2-6.66,6.66,2.44,9.09,9.09,2.44,6.66-6.66-2-7.51,19-19,7.51,2L208.68,44l-2.44-9.09Z"/></g></g></svg>